<?xml version="1.0" encoding="UTF-8" standalone="no"?>
<!-- Created with Inkscape (http://www.inkscape.org/) -->

<svg
   width="11.404342mm"
   height="10.469968mm"
   viewBox="0 0 11.404342 10.469968"
   version="1.1"
   id="svg1"
   xmlns="http://www.w3.org/2000/svg"
   xmlns:svg="http://www.w3.org/2000/svg">
  <defs
     id="defs1" />
  <g
     id="layer1"
     transform="translate(-36.307631,-84.927217)">
    <path
       style="font-size:14.1111px;font-family:'Dumbledor 1';-inkscape-font-specification:'Dumbledor 1, ';fill:#101828;fill-opacity:1;stroke-width:0.701516;paint-order:fill markers stroke"
       d="m 61.09231,79.026527 -0.606336,0.427192 q -0.330729,0.234266 -0.502984,0.74414 l -0.144694,0.620116 q -0.564995,-0.640787 -0.833712,-0.806151 -0.392741,-0.241157 -1.11621,-0.241157 h -0.902615 v 6.566347 q 0,0.482313 0.04823,0.640787 0.05512,0.186035 0.358289,0.537435 h -2.067055 q 0.289388,-0.37207 0.358289,-0.613227 l 0.04134,-0.564995 v -5.56727 q 0,-0.640787 -0.372071,-0.909504 -0.04823,-0.03445 -0.186035,-0.08957 h -1.1231 q -0.861273,0 -1.357366,0.227376 l -1.254014,0.764811 0.847493,-1.247124 q 0.37207,-0.544324 0.37896,-1.605413 0.37896,0.654568 0.875053,0.902614 0.440972,0.213596 1.247124,0.213596 z"
       id="text1-5"
       transform="scale(0.91737758,1.0900637)"
       aria-label="T" />
    <g
       id="g47"
       transform="matrix(1.3020766,0,0,-1.3020766,-64.69835,191.58314)">
      <path
         id="path4-37"
         style="fill:none;fill-opacity:1;stroke:#389833;stroke-width:0.786;stroke-dasharray:none;stroke-dashoffset:64.6682;stroke-opacity:1;paint-order:fill markers stroke"
         d="m 81.899394,75.078621 a 3.9878449,3.9878449 0 0 0 -1.589051,3.172933 3.9878449,3.9878449 0 0 0 1.581299,3.167766 3.9878449,3.9878449 0 0 0 1.581299,-3.167766 3.9878449,3.9878449 0 0 0 -1.573547,-3.172933 z" />
      <path
         id="path4-3-6"
         style="fill:none;fill-opacity:1;stroke:#389833;stroke-width:0.786;stroke-dasharray:none;stroke-dashoffset:64.6682;stroke-opacity:1;paint-order:fill markers stroke"
         d="m 84.298214,74.264201 a 3.9878449,3.9878449 0 0 0 -3.948596,3.433382 3.9878449,3.9878449 0 0 0 1.603002,0.340031 3.9878449,3.9878449 0 0 0 3.948597,-3.435966 3.9878449,3.9878449 0 0 0 -1.603003,-0.337447 z" />
      <path
         id="circle46"
         style="fill:none;fill-opacity:1;stroke:#389833;stroke-width:0.786;stroke-dasharray:none;stroke-dashoffset:64.6682;stroke-opacity:1;paint-order:fill markers stroke"
         d="m 79.485071,74.264201 a 3.9878449,3.9878449 0 0 0 -1.483631,0.295589 3.9878449,3.9878449 0 0 0 3.95118,3.477824 3.9878449,3.9878449 0 0 0 1.486215,-0.296623 3.9878449,3.9878449 0 0 0 -3.953764,-3.47679 z" />
    </g>
  </g>
</svg>
