<?xml version="1.0" encoding="UTF-8" standalone="no"?>
<!-- Created with Inkscape (http://www.inkscape.org/) -->

<svg
   width="51.988113mm"
   height="10.605159mm"
   viewBox="0 0 51.988113 10.605159"
   version="1.1"
   id="svg1"
   xmlns="http://www.w3.org/2000/svg"
   xmlns:svg="http://www.w3.org/2000/svg">
  <defs
     id="defs1" />
  <g
     id="layer1"
     transform="translate(-36.307633,-84.927212)">
    <path
       style="font-size:14.1111px;font-family:'Dumbledor 1';-inkscape-font-specification:'Dumbledor 1, ';fill:#101828;fill-opacity:1;stroke-width:0.701516;paint-order:fill markers stroke"
       d="m 64.844472,85.241473 q 0,1.13688 -0.599446,1.674315 -0.551215,0.489203 -1.715656,0.537434 -1.164441,0.04823 -1.825899,-0.420301 -0.337619,-0.241156 -0.530544,-0.778591 -0.172255,-0.475423 -0.172255,-0.950846 0,-0.475422 0.502983,-1.570962 l 0.02067,-0.124023 q -0.02756,-0.172255 -0.454752,-0.592556 L 59.93866,82.630092 h 1.83968 l -0.02067,0.482313 q -0.564995,1.040418 -0.564995,2.20486 0,0.964626 0.275607,1.205782 0.282498,0.3514 1.198893,0.378961 l 0.02756,-0.0069 q 0.434081,-0.165364 0.606336,-0.39274 0.03445,-0.05512 0.117133,-0.165365 v 0.04134 l 0.0069,-0.01378 q 0.296278,-0.592556 0.296278,-1.1231 0,-1.143771 -0.695909,-2.177299 l -0.09646,-0.496093 h 1.85346 l -0.117133,0.38585 q -0.447862,0.420302 -0.454753,0.592556 l 0.02067,0.110243 0.420301,0.689019 q 0.192925,0.427191 0.192925,0.895724 z m 5.773976,2.191079 h -1.83968 l 0.02067,-0.482313 q 0.564995,-1.040418 0.564995,-2.20486 0,-1.51584 -1.378037,-1.51584 -0.310058,0 -0.723469,0.254936 -0.35829,0.220486 -0.35829,0.378961 v 2.60449 q 0,0.206705 0.130913,0.37207 l 0.392741,0.261827 0.06201,0.330729 h -2.129068 l 0.323839,-0.310059 q 0.144694,-0.165364 0.144694,-0.37896 v -3.3693 q 0,-0.248047 -0.461642,-0.695909 h 1.536511 v 0.37896 q 0.75792,-0.468533 1.743217,-0.468533 1.061089,0 1.736327,1.10932 0.172254,0.461643 0.172254,1.061089 0,0.475423 -0.502983,1.570962 l -0.02067,0.124023 q 0.0069,0.172255 0.454752,0.592556 z m 5.567269,-1.963703 q -0.709689,1.998154 -2.521808,1.998154 -1.047308,0 -1.805228,-0.72347 -0.75103,-0.730359 -0.75103,-1.770777 0,-1.143771 0.675238,-1.819009 0.682128,-0.682129 1.825899,-0.682129 0.875054,0 1.398708,0.447862 0.461642,0.399631 0.778591,1.267794 l -3.513995,0.627007 -0.01378,0.08268 q 0.01378,-0.0689 0.03445,-0.130914 0.0069,0.02756 0.0069,0.08268 0,0.819932 0.468532,1.378037 0.496094,0.599447 1.295355,0.599447 0.647678,0 1.240234,-0.392741 0.564995,-0.37207 0.881943,-0.964626 z m -1.598523,-1.688096 q -0.08268,-0.37207 -0.427191,-0.592556 -0.337619,-0.227376 -0.71658,-0.179144 -0.578775,0.07579 -0.868163,0.537434 -0.151584,0.3514 -0.303168,0.695909 z"
       id="text1"
       transform="scale(0.91737758,1.0900637)"
       aria-label="une " />
    <path
       style="font-size:14.1111px;font-family:'Dumbledor 1';-inkscape-font-specification:'Dumbledor 1, ';fill:#101828;fill-opacity:1;stroke-width:0.701516;paint-order:fill markers stroke"
       d="m 83.942117,84.455992 q 0,1.819009 -2.101506,2.576929 -0.916395,0.330729 -2.142848,0.413411 l 0.01378,0.02067 h -0.330729 q -0.103352,0 -0.316948,0.0069 -0.213596,0.0069 -0.316949,0.0069 h -0.316948 l -0.241157,-0.01378 h -0.585666 q 0.3514,-0.35829 0.392741,-0.544325 l 0.05512,-0.633897 v -5.60174 q 0,-0.516764 -0.303168,-0.895724 -0.358289,-0.440972 -0.482313,-0.440972 l -0.01378,-0.330729 0.213596,-0.01378 q 0.937065,-0.06201 1.433158,0.413411 l 0.144694,0.234266 q 1.033528,-0.826822 2.23242,-0.826822 0.826823,0 1.384928,0.399631 0.633897,0.447862 0.633897,1.247123 0,0.930176 -0.72347,1.694986 1.371147,0.74414 1.371148,2.287542 z M 81.81994,80.583707 q 0,-0.943955 -1.067979,-0.943955 -0.454752,0 -0.854383,0.158474 -0.523654,0.206706 -0.578775,0.571886 l 0.0069,0.08957 v 1.1231 q 0.564995,0.0069 1.743217,0.117133 0.103353,0.0069 0.427191,0.07579 0.323839,-0.502984 0.323839,-1.192003 z m 0.647677,3.899845 q 0,-1.13688 -1.019747,-1.805228 -0.833712,-0.544325 -1.756997,-0.544325 -0.35829,0 -0.36518,0.06201 v 4.519962 q 0,0.110243 0.03445,0.213595 0.02756,0.0069 0.06201,0 0.165365,-0.02756 0.282498,-0.02756 0.964626,0 1.743217,-0.509874 1.019747,-0.668348 1.019747,-1.908582 z m 7.193354,0.613227 q 0,1.171332 -0.7717,1.84657 -0.73036,0.647677 -1.915472,0.647677 -1.171332,0 -1.908581,-0.654567 -0.771701,-0.682129 -0.771701,-1.83968 0,-1.192002 0.75792,-1.86035 0.716579,-0.640787 1.922362,-0.640787 1.171332,0 1.908581,0.661457 0.778591,0.689019 0.778591,1.83968 z m -1.192002,0 q 0,-0.792371 -0.344509,-1.329806 -0.399631,-0.633897 -1.150661,-0.633897 -0.75103,0 -1.150661,0.633897 -0.337619,0.530544 -0.337619,1.329806 0,0.75103 0.330729,1.295355 0.399631,0.661458 1.157551,0.661458 0.74414,0 1.150661,-0.633897 0.344509,-0.537435 0.344509,-1.322916 z m 7.779019,1.591633 q -0.351399,0.551215 -0.647677,0.73725 -0.254937,0.213596 -0.654568,0.213596 -1.081759,0 -2.218639,-1.881021 -0.103353,0.199815 -0.199816,0.399631 -0.08957,0.151584 -0.537434,0.564995 -0.799262,0.74414 -1.805229,0.74414 h -0.833712 q 0.702799,-0.165365 1.288464,-0.647678 0.378961,-0.310058 0.999077,-1.040418 l 0.434082,-0.509873 q 0.07579,-0.165365 0.158474,-0.337619 -0.888834,-1.502061 -1.433158,-1.502061 -0.220486,0 -0.73725,0.310058 0,-0.475422 0.330729,-0.75103 0.310058,-0.261827 0.792371,-0.261827 1.067979,0 1.729437,1.11621 0.806151,-1.11621 2.018824,-1.11621 0.475423,0 1.157551,0.344509 l -0.454752,0.599447 -0.627007,0.420301 q -0.158474,-0.296278 -0.192925,-0.337619 -0.103353,-0.124024 -0.344509,-0.158474 -0.34451,0.0069 -0.695909,0.39274 l -0.447862,0.606336 0.840602,1.612304 q 0.468533,0.895724 0.840603,0.895724 0.07579,0.02756 0.220486,0.02756 0.544325,0 1.019747,-0.440972 z"
       id="text1-52"
       transform="scale(0.91737758,1.0900637)"
       aria-label="Box" />
    <path
       style="font-size:14.1111px;font-family:'Dumbledor 1';-inkscape-font-specification:'Dumbledor 1, ';fill:#101828;fill-opacity:1;stroke-width:0.701516;paint-order:fill markers stroke"
       d="m 61.09231,79.026527 -0.606336,0.427192 q -0.330729,0.234266 -0.502984,0.74414 l -0.144694,0.620116 q -0.564995,-0.640787 -0.833712,-0.806151 -0.392741,-0.241157 -1.11621,-0.241157 h -0.902615 v 6.566347 q 0,0.482313 0.04823,0.640787 0.05512,0.186035 0.358289,0.537435 h -2.067055 q 0.289388,-0.37207 0.358289,-0.613227 l 0.04134,-0.564995 v -5.56727 q 0,-0.640787 -0.372071,-0.909504 -0.04823,-0.03445 -0.186035,-0.08957 h -1.1231 q -0.861273,0 -1.357366,0.227376 l -1.254014,0.764811 0.847493,-1.247124 q 0.37207,-0.544324 0.37896,-1.605413 0.37896,0.654568 0.875053,0.902614 0.440972,0.213596 1.247124,0.213596 z"
       id="text1-5"
       transform="scale(0.91737758,1.0900637)"
       aria-label="T" />
    <g
       id="g47"
       transform="matrix(1.3020766,0,0,-1.3020766,-64.69835,191.58314)">
      <path
         id="path4-37"
         style="fill:none;fill-opacity:1;stroke:#389833;stroke-width:0.786;stroke-dasharray:none;stroke-dashoffset:64.6682;stroke-opacity:1;paint-order:fill markers stroke"
         d="m 81.899394,75.078621 a 3.9878449,3.9878449 0 0 0 -1.589051,3.172933 3.9878449,3.9878449 0 0 0 1.581299,3.167766 3.9878449,3.9878449 0 0 0 1.581299,-3.167766 3.9878449,3.9878449 0 0 0 -1.573547,-3.172933 z" />
      <path
         id="path4-3-6"
         style="fill:none;fill-opacity:1;stroke:#389833;stroke-width:0.786;stroke-dasharray:none;stroke-dashoffset:64.6682;stroke-opacity:1;paint-order:fill markers stroke"
         d="m 84.298214,74.264201 a 3.9878449,3.9878449 0 0 0 -3.948596,3.433382 3.9878449,3.9878449 0 0 0 1.603002,0.340031 3.9878449,3.9878449 0 0 0 3.948597,-3.435966 3.9878449,3.9878449 0 0 0 -1.603003,-0.337447 z" />
      <path
         id="circle46"
         style="fill:none;fill-opacity:1;stroke:#389833;stroke-width:0.786;stroke-dasharray:none;stroke-dashoffset:64.6682;stroke-opacity:1;paint-order:fill markers stroke"
         d="m 79.485071,74.264201 a 3.9878449,3.9878449 0 0 0 -1.483631,0.295589 3.9878449,3.9878449 0 0 0 3.95118,3.477824 3.9878449,3.9878449 0 0 0 1.486215,-0.296623 3.9878449,3.9878449 0 0 0 -3.953764,-3.47679 z" />
    </g>
  </g>
</svg>
